# xmcd
#
# Track frame offsets:
#	150
#	15905
#	28741
#	48934
#	64202
#	82638
#	97619
#	113304
#	127760
#	151608
#	172518
#	193426
#	209929
#	228653
#	244171
#	259123
#	275732
#	291873
#	306811
#	324558
#
# Disc length: 4438 seconds
#
# Revision: 0
# Processed by: cddbd v1.5.2PL0 Copyright (c) Steve Scherf et al.
# Submitted via: EasyCDDAExtractor 16.0.8.2
#
DISCID=02115414
DTITLE=Ξαναζώντας... με τον Αττίκ
DYEAR=2012
DGENRE=Ελαφρά
TTITLE0=Μενδρή Κάκια - Άδικα πήγαν τα νιάτα μου [Αττίκ]
TTITLE1=Μοσχονάς Νίκος - Ο διαβάτης της ζωής [Αττίκ]
TTITLE2=Ζαχά Νινή - Παπαρούνα [Αττίκ]
TTITLE3=Γκρέκα Στέλλα - Είδα μάτια [Αττίκ]
TTITLE4=Μάγκου Ζωή - Ζητάτε να σάς πω [Αττίκ]
TTITLE5=Μενδρή Κάκια - Μαραμένα τα γιούλια (κι οι βιόλες)[Αττίκ]
TTITLE6=Ζαχά Νινή - Να ζει κανείς ή να μη ζει [Αττίκ]
TTITLE7=Χρονίδης Πύρρος - Κι αν μετανιώσουμε [Αττίκ]
TTITLE8=Ζαχά Νινή - Κατινιώ [Αττίκ]
TTITLE9=Μακρής Ορέστης-Βάνου Τζένη - Τα τελευταία γιασεμιά (Τής μιάς δραχμής..
TTITLE9=)[Αττίκ]
TTITLE10=Ζαχά Νινή - Την ώρα που περνούσε τ' οργανάκι [Αττίκ]
TTITLE11=Μενδρή Κάκια - Τι να την κάνω την ομορφιά σου [Αττίκ]
TTITLE12=Μαρούδας Τώνης - Η σερενάτα της μοδιστρούλας [Αττίκ]
TTITLE13=Γκρέκα Στέλλα - Και τι μ' αυτό [Αττίκ]
TTITLE14=Βισβάρδης Πάνος - Τόσοι σού 'παν ''Σ' αγαπώ'' [Αττίκ]
TTITLE15=Δανάη - Χωρίς φιλί (Όταν μι' αγάπη)[Αττίκ]
TTITLE16=Γκρέκα Στέλλα - Τα νιάτα [Αττίκ]
TTITLE17=Μαρούδας Τ.-Μάγκου Ζ.-Τρογάδης Κ.-Τασούλης Γ. - Κι όμως [Αττίκ]
TTITLE18=Αττίκ-Παρίτση Καίτη - Χωρίς εσένα [Αττίκ]
TTITLE19=Αττίκ - Το δάκρυ το πικρότερο-Άδικα πήγαν τα νιάτα μου[Αττίκ]
EXTD=
EXTT0=
EXTT1=
EXTT2=
EXTT3=
EXTT4=
EXTT5=
EXTT6=
EXTT7=
EXTT8=
EXTT9=
EXTT10=
EXTT11=
EXTT12=
EXTT13=
EXTT14=
EXTT15=
EXTT16=
EXTT17=
EXTT18=
EXTT19=
PLAYORDER=
